<svg xmlns="http://www.w3.org/2000/svg" viewBox="0 0 202.176 202.176" enable-background="new 0 0 202.176 202.176"><g fill="#010002"><path d="M44.564 57.92h116.09v5.06H44.565zM44.564 85.76h116.09v5.057H44.565zM163.443 0H38.733c-15.785 0-28.63 10.6-28.63 23.624v100.802c0 13.027 12.844 23.617 28.63 23.617h9.574l34.278 53.31.53.824 34.804-54.137h45.522c15.786 0 28.63-10.59 28.63-23.617v-100.8C192.073 10.602 179.23 0 163.443 0zm0 142.99h-48.275l-32.05 49.834-31.865-49.553-.183-.282H38.737c-12.995 0-23.577-8.332-23.577-18.567V23.625c0-10.232 10.583-18.563 23.577-18.563h124.71c13 0 23.57 8.333 23.57 18.564v100.802c-.004 10.232-10.572 18.563-23.574 18.563z"/></g></svg>