<svg xmlns="http://www.w3.org/2000/svg" viewBox="0 0 199.898 199.898" enable-background="new 0 0 199.898 199.898"><path d="M186.656 106.782c-.33 22.683-9.344 44.006-25.396 60.053-33.817 33.817-88.84 33.817-122.658 0-33.817-33.82-33.817-88.852 0-122.67 32.078-32.065 83.21-33.725 117.25-4.97l-30.688 7.896 1.564 7.55 44.274-10.498-.222-.215.18-.05L162.337 0l-7.455 1.954 6.284 31.676C124.107 2.004 68.192 3.686 33.152 38.712c-36.82 36.826-36.82 96.743 0 133.566 36.83 36.826 96.736 36.826 133.566 0 17.468-17.468 27.282-40.692 27.643-65.39l-7.704-.106z" fill="#010002"/></svg>