<svg xmlns="http://www.w3.org/2000/svg" width="308.566" height="157.568" viewBox="0 0 308.566 157.568"><path fill="#191919" stroke="#000" stroke-width=".084" stroke-miterlimit="10" d="M181.534 107.014c.062-.418.354-1.608.438-2.714-.408-.442-.818-.89-1.23-1.333-.8-.226-1.58-.435-2.31-.73-.864.367-1.64.985-2.302 1.62-1.008 6.356-3.945 12.683-9.59 18.682-13.898 14.593-37.28 23.633-60.79 26.133-53.128 5.482-66.42-27.188-79.623-54.792 6.507 1.105 12.905 2.662 19.11 4.487 3.284.967 6.707-1.923 4.844-3.935-11.454-11.984-25.65-22.335-39.65-32.955-1.606-1.447-5.07-.03-5.59 1.604C-.62 78.86.477 94.453.005 110.07c-.178 2.385 4.14 2.845 6.423.917 5.125-4.016 9.71-8.512 13.573-13.23 6.528 15.733 13.744 32.968 29.74 44.497 17.882 12.898 42.435 14.77 68.34 9.884 33.526-6.23 57.465-24.104 63.504-44.24-.064-.267-.1-.556-.05-.884zM23.392 90.637c-.985-.778-2.36-1.02-3.865-.165-5.103 3.37-8.574 7.55-12.325 11.807.31-11.12-.023-22.265 3.06-33.543 9.324 7.295 19.017 14.696 27.394 22.687-4.402-.646-9-1.022-13.898-.68l-.366-.107z"/><path fill="none" d="M303.245 122.71L121.947 90.734 137.95.006l181.298 31.978z"/><text transform="matrix(.985 .174 -.174 .985 133.239 26.72)" fill="#191919" font-family="'HelveticaNeue-Light'" font-size="38">Ladda ner</text><text transform="matrix(.985 .174 -.174 .985 125.323 71.626)" fill="#191919" font-family="'HelveticaNeue-Light'" font-size="38">mitt CV</text><path stroke="#000" stroke-width=".084" stroke-miterlimit="10" d="M-26.433 58.237h.333v.667h-.333z"/></svg>