<svg width="900" xmlns="http://www.w3.org/2000/svg" height="600" viewBox="-36 -24 72 48" xmlns:xlink="http://www.w3.org/1999/xlink"><path fill="#fff" d="M-36-24h72v48h-72z"/><g transform="rotate(-56.31)"><g id="b"><path stroke="#000" id="a" stroke-width="2" d="M-6-25H6m-12 3H6m-12 3H6"/><use y="44" xlink:href="#a"/></g><path stroke="#fff" d="M0 17v10"/><circle fill="#c60c30" r="12"/><path fill="#003478" d="M0-12A6 6 0 0 0 0 0a6 6 0 0 1 0 12 12 12 0 0 1 0-24z"/></g><g transform="matrix(-.555 -.832 .832 -.555 0 0)"><use xlink:href="#b"/><path stroke="#fff" d="M0-23.5v3M0 17v3.5m0 3v3"/></g></svg>