<svg xmlns="http://www.w3.org/2000/svg" viewBox="0 0 186.623 186.623" enable-background="new 0 0 186.623 186.623"><g fill="#010002"><path d="M151.994 7.634l27 26.995-8.225 8.22-9.277-9.262c-.633-.64-1.668-.644-2.308 0-.644.644-.644 1.675 0 2.316l9.273 9.266-6.642 6.646-9.276-9.27c-.64-.636-1.675-.636-2.312 0-.637.642-.637 1.68 0 2.317l9.262 9.262-7.526 7.533-9.273-9.266c-.63-.648-1.677-.644-2.315 0-.633.64-.633 1.678 0 2.316l9.276 9.266-7.27 7.272-17.065-17.05c-.633-.644-1.675-.644-2.308 0-.644.644-.644 1.678 0 2.316l17.05 17.05-10.53 10.536-9.275-9.266c-.64-.644-1.67-.644-2.32 0-.64.64-.64 1.67 0 2.312l9.27 9.266-1.8 1.797 4.635 4.627 53.59-53.583c2.56-2.55 2.56-6.706 0-9.265L156.643 2.992c-2.57-2.555-6.72-2.555-9.276 0l-53.583 53.59 4.62 4.635 53.59-53.583zM86.41 127.203l-9.265-9.266c-.64-.644-1.675-.644-2.316 0-.645.65-.642 1.678 0 2.316l9.265 9.28L73.56 140.06l-17.05-17.05c-.637-.645-1.67-.645-2.316 0-.64.632-.644 1.674 0 2.307l17.05 17.064-7.272 7.273-9.266-9.276c-.637-.633-1.675-.633-2.316 0-.644.64-.644 1.69 0 2.316l9.266 9.273-7.53 7.526-9.262-9.258c-.64-.64-1.678-.64-2.32-.004-.636.64-.632 1.675 0 2.312l9.27 9.28-6.642 6.64-9.266-9.274c-.64-.644-1.675-.644-2.316 0-.64.64-.637 1.675.004 2.308l9.262 9.276-8.22 8.224L7.633 152 61.217 98.41l-4.635-4.624-53.58 53.586c-2.558 2.555-2.554 6.707 0 9.276l26.993 26.985c2.555 2.556 6.71 2.556 9.262 0l53.583-53.59-4.63-4.637-1.8 1.8zM186.283 180.185c-16.03-34.9-17.443-36.31-17.977-36.85L27.356 3.32c-2.92-2.92-7.68-2.92-10.6 0L2.19 17.89c-2.92 2.92-2.92 7.674 0 10.598l140.946 140.02c.6.593 2.01 1.996 38.333 16.712 1.42.573 3.055.225 4.108-.884 1.073-1.106 1.342-2.752.705-4.15zM7.483 23.195L22.05 8.622l16.354 16.36L23.85 39.55 7.482 23.195zM29.146 44.85l14.566-14.57 116.645 115.71-14.562 14.56-116.65-115.7zm122.977 119.98l12.648-12.657c2.424 4.846 6.5 13.467 10.705 22.522-9.348-3.847-18.295-7.605-23.352-9.864z"/></g></svg>