<svg xmlns="http://www.w3.org/2000/svg" width="308.566" height="157.568" viewBox="0 0 308.566 157.568"><path fill="#191919" stroke="#000" stroke-width=".084" stroke-miterlimit="10" d="M181.534 107.014c.062-.418.354-1.608.438-2.713-.408-.442-.818-.888-1.23-1.332-.8-.226-1.58-.435-2.31-.73-.864.366-1.64.984-2.3 1.62-1.01 6.356-3.947 12.682-9.59 18.68-13.9 14.595-37.28 23.635-60.792 26.135-53.127 5.482-66.42-27.188-79.622-54.792 6.507 1.105 12.905 2.662 19.11 4.487 3.284.967 6.707-1.923 4.844-3.935-11.455-11.984-25.65-22.335-39.65-32.955-1.607-1.447-5.07-.03-5.59 1.604C-.618 78.86.477 94.453.005 110.07c-.178 2.385 4.14 2.845 6.423.917 5.125-4.016 9.71-8.512 13.573-13.228 6.53 15.73 13.745 32.965 29.74 44.495 17.883 12.898 42.436 14.768 68.34 9.883 33.527-6.23 57.466-24.104 63.505-44.24-.065-.267-.1-.556-.05-.884zM23.392 90.637c-.985-.778-2.36-1.02-3.865-.165-5.103 3.37-8.574 7.55-12.325 11.807.31-11.12-.023-22.265 3.06-33.543 9.324 7.295 19.017 14.696 27.394 22.687-4.402-.646-9-1.023-13.898-.68l-.366-.107z"/><path fill="none" d="M137.95.007l181.297 31.977-16.002 90.727-181.3-31.977z"/><text transform="matrix(.985 .174 -.174 .985 133.239 26.72)" fill="#191919" font-family="'HelveticaNeue-Light'" font-size="38">Download</text><text transform="matrix(.985 .174 -.174 .985 125.323 71.626)" fill="#191919" font-family="'HelveticaNeue-Light'" font-size="38">my resumé</text><path stroke="#000" stroke-width=".084" stroke-miterlimit="10" d="M-26.433 58.237h.333v.667h-.333z"/></svg>