<?xml version="1.0" encoding="utf-8"?>
<!-- Generator: Adobe Illustrator 16.0.0, SVG Export Plug-In . SVG Version: 6.00 Build 0)  -->
<!DOCTYPE svg PUBLIC "-//W3C//DTD SVG 1.1//EN" "http://www.w3.org/Graphics/SVG/1.1/DTD/svg11.dtd">
<svg version="1.1" id="Capa_1" xmlns="http://www.w3.org/2000/svg" xmlns:xlink="http://www.w3.org/1999/xlink" x="0px" y="0px"
	 width="308.566px" height="157.568px" viewBox="0 0 308.566 157.568" enable-background="new 0 0 308.566 157.568"
	 xml:space="preserve">
<g>
	<path fill="#191919" stroke="#000000" stroke-width="0.0837" stroke-miterlimit="10" d="M181.534,107.014
		c0.062-0.418,0.354-1.608,0.438-2.713c-0.408-0.443-0.818-0.889-1.229-1.333c-0.8-0.226-1.58-0.435-2.31-0.731
		c-0.865,0.367-1.64,0.985-2.302,1.621c-1.008,6.356-3.946,12.682-9.59,18.681c-13.898,14.594-37.279,23.634-60.791,26.134
		c-53.127,5.482-66.42-27.188-79.622-54.792c6.507,1.104,12.905,2.661,19.109,4.486c3.285,0.967,6.708-1.923,4.845-3.935
		C38.627,82.448,24.432,72.097,10.432,61.477c-1.607-1.447-5.07-0.03-5.59,1.604c-5.46,15.777-4.365,31.371-4.837,46.99
		c-0.178,2.384,4.14,2.844,6.423,0.916c5.125-4.016,9.711-8.512,13.573-13.228c6.528,15.732,13.744,32.966,29.74,44.496
		c17.882,12.898,42.435,14.768,68.339,9.883c33.527-6.229,57.466-24.104,63.505-44.239
		C181.52,107.631,181.484,107.342,181.534,107.014z M23.392,90.637c-0.985-0.778-2.36-1.021-3.865-0.165
		c-5.103,3.371-8.574,7.549-12.325,11.807c0.31-11.118-0.023-22.264,3.059-33.542c9.325,7.295,19.018,14.696,27.395,22.687
		c-4.402-0.646-8.999-1.023-13.898-0.68C23.392,90.637,23.392,90.637,23.392,90.637z"/>
</g>
<rect x="128.548" y="15.295" transform="matrix(0.9848 0.1737 -0.1737 0.9848 14.0113 -37.3846)" fill="none" width="184.097" height="92.127"/>
<text transform="matrix(0.9848 0.1736 -0.1736 0.9848 133.2388 26.7195)" fill="#191919" font-family="'HelveticaNeue-Light'" font-size="38">Download </text>
<text transform="matrix(0.9848 0.1736 -0.1736 0.9848 125.3228 71.6257)" fill="#191919" font-family="'HelveticaNeue-Light'" font-size="38">my resumé</text>
<rect x="-26.433" y="58.237" stroke="#000000" stroke-width="0.0837" stroke-miterlimit="10" width="0.333" height="0.667"/>
</svg>
